<?xml version="1.0" standalone="no"?>
<!DOCTYPE svg PUBLIC "-//W3C//DTD SVG 20010904//EN"
 "http://www.w3.org/TR/2001/REC-SVG-20010904/DTD/svg10.dtd">
<svg version="1.0" xmlns="http://www.w3.org/2000/svg"
 width="791.000000pt" height="220.000000pt" viewBox="0 0 791.000000 220.000000"
 preserveAspectRatio="xMidYMid meet">

<g transform="translate(0.000000,220.000000) scale(0.100000,-0.100000)"
fill="#000000" stroke="none">
<path d="M2143 1456 c-103 -33 -158 -100 -156 -192 3 -106 53 -157 219 -219
112 -42 143 -91 88 -134 -54 -42 -172 -17 -226 47 l-26 32 -46 -53 -45 -52 36
-37 c88 -90 245 -119 356 -64 73 35 109 85 115 160 9 110 -41 173 -182 227
-117 45 -146 64 -146 100 0 67 99 78 192 20 28 -18 51 -30 52 -29 1 2 19 24
39 49 20 25 37 50 37 54 0 24 -110 80 -185 94 -70 13 -69 13 -122 -3z"/>
<path d="M6389 1460 c-196 -34 -328 -224 -289 -416 35 -174 175 -288 350 -287
88 1 144 19 210 68 89 66 140 169 140 285 l0 70 -175 0 -175 0 0 -70 0 -70
100 0 c55 0 100 -4 100 -8 0 -5 -13 -28 -30 -50 -75 -104 -215 -118 -314 -31
-69 61 -91 144 -61 230 31 86 114 142 211 141 55 0 93 -15 142 -56 l30 -26 48
37 c27 20 51 38 53 39 9 8 -32 55 -71 82 -80 54 -180 77 -269 62z"/>
<path d="M559 1343 c21 -65 71 -223 111 -350 l74 -233 61 0 62 0 51 178 c28
97 57 199 64 225 l12 48 53 -188 c29 -103 58 -205 63 -225 l11 -38 62 0 62 0
111 350 111 350 -73 0 -73 0 -45 -142 c-25 -79 -55 -178 -68 -221 l-22 -77
-61 217 -61 218 -67 3 -66 3 -10 -38 c-6 -21 -34 -120 -64 -220 l-53 -183 -65
218 -65 217 -76 3 -76 3 37 -118z"/>
<path d="M1698 1438 l-68 -21 0 -328 0 -329 70 0 70 0 0 350 c0 193 -1 350 -2
349 -2 -1 -33 -10 -70 -21z"/>
<path d="M2650 1395 l0 -65 225 0 225 0 0 65 0 65 -225 0 -225 0 0 -65z"/>
<path d="M3256 1438 c3 -12 62 -168 130 -347 l122 -326 59 -3 58 -3 132 351
131 351 -76 -3 -76 -3 -80 -222 c-45 -122 -83 -224 -86 -227 -3 -3 -43 98 -89
224 l-84 230 -74 0 c-72 0 -74 -1 -67 -22z"/>
<path d="M4210 1444 c-172 -63 -270 -242 -226 -414 21 -81 66 -152 129 -201
65 -52 139 -73 238 -67 132 8 234 75 295 196 26 51 29 67 29 152 0 84 -3 102
-28 152 -35 72 -93 130 -165 165 -71 34 -201 43 -272 17z m176 -129 c41 -8 90
-45 123 -92 22 -33 26 -48 26 -113 0 -68 -3 -79 -32 -122 -42 -59 -104 -91
-178 -90 -103 1 -183 66 -206 166 -11 49 -10 64 5 111 20 66 88 131 145 141
20 3 41 7 46 9 6 2 17 2 25 0 8 -2 29 -6 46 -10z"/>
<path d="M4743 1453 c3 -4 57 -93 121 -197 l116 -190 0 -153 0 -153 70 0 70 0
0 155 0 154 113 183 c62 101 117 189 121 196 5 9 -12 12 -76 12 l-83 0 -70
-120 c-38 -66 -72 -120 -75 -120 -3 0 -37 53 -76 118 l-70 117 -83 3 c-45 2
-81 -1 -78 -5z"/>
<path d="M5497 1128 c-69 -183 -129 -341 -132 -350 -6 -16 0 -18 67 -18 l75 0
78 218 c43 119 83 228 90 240 10 21 20 -1 100 -217 l88 -241 74 0 c41 0 73 4
71 9 -1 5 -61 162 -133 350 l-130 341 -61 0 -61 0 -126 -332z"/>
<path d="M6940 1395 l0 -65 230 0 230 0 0 65 0 65 -230 0 -230 0 0 -65z"/>
<path d="M2650 1105 l0 -65 225 0 225 0 0 65 0 65 -225 0 -225 0 0 -65z"/>
<path d="M6940 1105 l0 -65 230 0 230 0 0 65 0 65 -230 0 -230 0 0 -65z"/>
<path d="M2650 825 l0 -65 225 0 225 0 0 65 0 65 -225 0 -225 0 0 -65z"/>
<path d="M6940 825 l0 -65 230 0 230 0 0 65 0 65 -230 0 -230 0 0 -65z"/>
</g>
</svg>
