<?xml version="1.0" encoding="utf-8"?>
<!DOCTYPE svg PUBLIC "-//W3C//DTD SVG 1.0//EN" "http://www.w3.org/TR/2001/REC-SVG-20010904/DTD/svg10.dtd">
<svg version="1.0" xmlns="http://www.w3.org/2000/svg" width="1156px" height="505px" viewBox="0 0 1156 505" preserveAspectRatio="xMidYMid meet">
 <g fill="#000000">
  <path d="M257.25 290.35 c-0.35 -0.90 -5.25 -13.85 -10.90 -28.85 -5.65 -15 -11.30 -29.95 -12.55 -33.25 -1.25 -3.30 -2.30 -6.85 -2.30 -7.85 l0 -1.90 8.95 0 8.95 0 0.55 1.35 c0.30 0.80 3.35 9.15 6.80 18.65 3.45 9.50 6.70 18.40 7.25 19.75 l0.90 2.50 0.75 -1.75 c0.40 -0.95 3.80 -10.30 7.60 -20.75 3.80 -10.45 7.15 -19.25 7.45 -19.55 0.40 -0.40 3.15 -0.50 9.20 -0.30 l8.60 0.25 0 1.50 c0 0.85 -5.90 17.20 -13.10 36.35 -7.20 19.10 -13.10 34.80 -13.10 34.80 -0.05 0.05 -3.30 0.20 -7.20 0.35 l-7.20 0.25 -0.65 -1.55z"/>
  <path d="M318.15 291.65 l-6.65 -0.20 -0.10 -32.45 c-0.05 -17.90 -0.10 -33.30 -0.10 -34.30 l-0.05 -1.85 6.75 -2.15 c3.70 -1.20 7.60 -2.15 8.65 -2.15 l1.85 -0.05 -0.10 36.65 -0.15 36.60 -1.75 0.05 c-0.95 0 -4.75 -0.05 -8.35 -0.15z"/>
  <path d="M362.25 291.30 c-6.60 -1.70 -11.20 -4.20 -15.85 -8.70 -4.70 -4.50 -4.65 -4.95 1 -11.75 5.65 -6.85 6.05 -6.90 11.20 -1.70 2.95 2.95 4.30 3.95 7.05 5 2 0.80 4.35 1.35 5.75 1.35 2.95 0 6.55 -1.70 7.60 -3.60 0.65 -1.25 0.65 -1.55 0 -2.75 -1.35 -2.40 -2.75 -3.15 -15.65 -8.20 -8.15 -3.15 -12.65 -6.80 -15.20 -12.20 -1.30 -2.80 -1.40 -3.40 -1.40 -9.50 0 -6.35 0.05 -6.60 1.65 -9.85 1.95 -3.95 4.90 -6.75 9.30 -8.85 4.65 -2.20 6.50 -2.55 13.05 -2.55 9.15 0 15.65 2.15 22.90 7.55 4.15 3.10 4.05 3.90 -1.45 10.95 -5.15 6.60 -5.50 6.75 -10.30 3.10 -3.75 -2.85 -7.80 -4.70 -10.90 -4.95 -2.75 -0.25 -6 1.45 -6.70 3.45 -0.90 2.55 1.35 4.05 13.35 8.85 8.80 3.55 12.75 5.85 15.50 9.05 6.45 7.55 5.35 22.90 -2.10 29.60 -2.65 2.40 -7 4.70 -10.80 5.70 -3.15 0.85 -14.60 0.85 -18 0z"/>
  <path d="M435.40 291.65 l-22.40 -0.15 0 -8 0 -8 24.25 0 24.25 0 -0.10 8.15 -0.15 8.10 -1.75 0 c-0.95 0.05 -11.80 -0.05 -24.10 -0.10z"/>
  <path d="M504.30 291.55 l-5.45 -0.30 -13.20 -35 c-8.85 -23.45 -13.15 -35.50 -13.05 -36.50 0.15 -1.40 0.30 -1.50 2.05 -1.50 1 0.05 5.05 0.10 9 0.15 l7.10 0.10 5.95 16.25 c3.25 8.90 6.75 18.45 7.75 21.20 l1.85 5 7.70 -21.20 7.75 -21.25 9.15 0 9.10 0 0 1.35 c0 1.30 -25.70 70.25 -26.65 71.55 -0.25 0.30 -1.20 0.55 -2.05 0.50 -0.85 -0.05 -4 -0.20 -7 -0.35z"/>
  <path d="M572.75 291 c-5.80 -1.45 -9.15 -2.95 -13.15 -6 -6.35 -4.75 -11 -11.60 -13.15 -19.25 -1.65 -5.75 -1.65 -15.85 -0.05 -21.40 4.90 -17.10 19.55 -27.20 37.85 -26.20 6.65 0.40 9.70 1.10 14.50 3.35 14.45 6.75 22.05 21 20.25 38.15 -1.35 13.35 -9.80 24.90 -21.55 29.55 -7.20 2.85 -17.50 3.60 -24.70 1.80z m15.05 -17.30 c3.35 -0.90 8.10 -4.50 10.35 -7.80 2.25 -3.25 3.85 -7.80 3.85 -10.90 0 -1.30 -0.45 -3.65 -1 -5.30 -3.40 -9.90 -13.25 -16.05 -22.35 -13.95 -1.75 0.40 -4.05 1.20 -5.15 1.75 -3.15 1.60 -7.45 6.25 -9.20 9.95 -1.35 2.90 -1.55 3.80 -1.55 7.55 0 3.75 0.20 4.65 1.60 7.65 1.80 3.80 5.90 8.20 9.20 9.85 4.65 2.40 8.80 2.75 14.25 1.20z"/>
  <path d="M741.50 291.65 l-7.25 -0.20 -7.95 -21.60 c-4.35 -11.85 -8.05 -21.75 -8.25 -21.95 -0.20 -0.20 -3.95 9.50 -8.30 21.60 l-8 22 -8.85 0 -8.90 0 0 -1.85 c0 -1.15 4.65 -14.15 13.10 -36.40 l13.10 -34.60 7.25 -0.30 c5.15 -0.15 7.45 -0.10 7.90 0.35 0.30 0.30 3.40 8.10 6.90 17.30 3.50 9.20 9.35 24.70 13.05 34.35 4.55 12.05 6.70 18.25 6.70 19.65 0 1.95 -0.05 2 -1.60 1.90 -0.90 -0.05 -4.90 -0.20 -8.90 -0.25z"/>
  <path d="M783.70 291.05 c-4.85 -1.30 -9.25 -3.60 -13.40 -7 -4.40 -3.55 -6.95 -6.80 -9.35 -11.80 -2.95 -6.10 -3.65 -9.45 -3.65 -17.25 -0.05 -8.15 0.50 -10.60 3.75 -17.40 2.10 -4.35 3.10 -5.75 6.60 -9.30 3.40 -3.40 4.90 -4.55 8.85 -6.45 5.90 -2.90 10.30 -3.85 17.90 -3.85 7.55 0 11.75 0.95 17.60 3.80 3.75 1.90 5.50 3.10 8.60 6.25 3.40 3.40 3.90 4.10 3.90 5.65 0 1.70 -0.30 2 -5.35 5.80 -6.70 4.90 -7.80 5.10 -11.25 1.85 -4.90 -4.70 -10.60 -6.80 -15.85 -5.85 -6.85 1.25 -12.80 5.80 -15.75 12 -1.35 2.85 -1.55 3.80 -1.55 7.50 0 3.75 0.20 4.65 1.60 7.65 2.10 4.45 6.05 8.40 10.50 10.50 2.95 1.40 3.95 1.60 7.40 1.60 3.35 0 4.50 -0.25 7 -1.40 1.60 -0.75 3.70 -1.95 4.65 -2.65 1.75 -1.35 5.60 -6 5.60 -6.75 0 -0.25 -4.05 -0.45 -9.25 -0.45 l-9.25 0 0 -8.50 0 -8.50 19.30 0 19.35 0 -0.30 8.15 c-0.20 6.25 -0.50 8.95 -1.35 11.85 -3.30 11.45 -12.30 20.55 -24 24.25 -4.35 1.40 -17.65 1.55 -22.30 0.30z"/>
  <path d="M646 276.25 l0 -15.25 -10.30 -16.85 c-5.70 -9.30 -11.10 -18.10 -12 -19.55 -1.10 -1.70 -1.70 -3.25 -1.70 -4.35 l0 -1.75 9.65 0 9.60 0.05 6.50 10.90 c3.60 6.05 6.65 10.80 6.85 10.65 0.20 -0.20 3.20 -5.15 6.75 -11.05 l6.40 -10.75 9.65 0 9.60 -0.05 0 1.85 c0 1.55 -1.95 5.05 -12 21.20 l-12 19.35 0 15.45 0 15.40 -8.50 0 -8.50 0 0 -15.25z"/>
  <path d="M842.50 283.50 l0 -8 24.25 0 24.25 0 0 8 0 8 -24.25 0 -24.25 0 0 -8z"/>
  <path d="M413 255.25 l0 -8.25 24.25 0 24.25 0 0 8.25 0 8.25 -24.25 0 -24.25 0 0 -8.25z"/>
  <path d="M842.50 255.25 l0 -8.25 24.25 0 24.25 0 0 8.25 0 8.25 -24.25 0 -24.25 0 0 -8.25z"/>
  <path d="M435.40 234.65 l-22.40 -0.15 0 -8 0 -8 22.25 -0.10 c12.25 -0.05 23.10 -0.10 24.15 -0.10 l1.85 -0.05 0 8.25 0 8.25 -1.75 0 c-0.95 0.05 -11.80 -0.05 -24.10 -0.10z"/>
  <path d="M842.50 226.50 l0 -8 24.25 0 24.25 0 0 8 0 8 -24.25 0 -24.25 0 0 -8z"/>
 </g>
 <g fill="#ffffff">
  <path d="M0 252.50 l0 -252.50 578 0 578 0 0 252.50 0 252.50 -578 0 -578 0 0 -252.50z m283.75 2.90 c7.15 -18.95 13.05 -34.70 13.15 -34.90 0.25 -0.65 -14.40 -0.85 -14.85 -0.25 -0.25 0.30 -4.10 10.70 -8.60 23.10 -4.50 12.45 -8.30 22.65 -8.45 22.65 -0.15 0 -1.05 -2.10 -1.95 -4.60 -2.85 -8 -14.05 -38.60 -14.60 -40 l-0.55 -1.40 -7.45 0 c-4.10 0 -7.45 0.15 -7.45 0.40 0 0.20 1.05 3.05 2.30 6.35 1.25 3.30 6.90 18.25 12.55 33.25 5.65 15 10.50 27.95 10.85 28.75 l0.65 1.50 5.70 -0.15 5.70 -0.15 13 -34.55z m43.25 -0.45 l0 -34.95 -1.15 0.25 c-3.40 0.85 -12.90 4.10 -12.90 4.40 0.05 0.20 0.05 14.95 0.05 32.85 l0 32.45 6.65 0.15 c3.60 0.10 6.75 0.10 7 0 0.20 -0.10 0.35 -15.90 0.35 -35.15z m51.75 34.85 c3.80 -1 8.15 -3.30 10.80 -5.70 7.30 -6.60 8.25 -19.60 1.90 -26.85 -2.65 -3 -6.75 -5.35 -15.30 -8.80 -12.15 -4.85 -13.65 -5.85 -13.65 -9.30 0 -2.85 0.60 -3.95 2.90 -5.10 2.75 -1.35 4.25 -1.60 7.05 -1.05 3.70 0.70 7.35 2.40 10.90 5.10 l3.10 2.35 4.35 -5.55 4.30 -5.55 -1.15 -0.95 c-7.65 -6.05 -15 -8.90 -23.20 -8.90 -5.05 0 -7.10 0.45 -11.55 2.55 -4.40 2.10 -7.35 4.90 -9.30 8.85 -1.55 3.10 -1.65 3.70 -1.65 8.35 0 4.45 0.15 5.35 1.40 8 2.55 5.40 7.05 9.05 15.20 12.20 12.75 5 14.05 5.65 15.50 7.85 1.15 1.75 1.15 4.65 -0.05 6.40 -2.30 3.55 -9.80 4.50 -16.10 2 -2.80 -1.10 -4.15 -2.05 -7.10 -5.05 l-3.65 -3.65 -1.35 1.60 c-0.75 0.90 -2.75 3.30 -4.50 5.35 l-3.15 3.70 2.65 2.75 c4.45 4.55 10.70 8.05 17.15 9.55 3.05 0.70 11.70 0.60 14.50 -0.15z m81.25 -6.35 l0 -6.45 -22.75 0 -22.75 0 0 6.50 0 6.50 22.40 0.10 c12.30 0.10 22.50 0.10 22.75 0 0.20 -0.10 0.35 -3.05 0.35 -6.65z m57.65 -8.45 c2.95 -7.85 8.80 -23.40 13.05 -34.60 l7.70 -20.40 -7.60 0 -7.55 0 -8.20 22.65 c-4.55 12.40 -8.40 22.80 -8.55 23 -0.45 0.50 -0.20 1.20 -9.55 -24.50 l-7.65 -21.10 -7.45 -0.15 c-4.10 -0.10 -7.50 -0.05 -7.60 0.10 -0.05 0.15 5.80 15.90 13 35 l13.10 34.75 5.45 0.25 c3.30 0.15 5.65 0.05 6 -0.25 0.30 -0.25 2.95 -6.90 5.85 -14.75z m71.45 14.75 c11.55 -2.40 19.90 -8.90 24.95 -19.50 2.60 -5.45 3.50 -9.10 3.50 -14.85 0.05 -5.45 -0.55 -9 -2.30 -13.40 -2.40 -6.15 -6.05 -11 -11.20 -14.95 -12.90 -9.80 -29.90 -9.90 -43.35 -0.30 -11.15 7.95 -16.55 23.85 -12.75 37.50 5 18.05 23.05 29.25 41.15 25.50z m154.70 -17.80 c-3.70 -9.75 -9.55 -25.25 -13.05 -34.45 -3.50 -9.20 -6.55 -16.95 -6.75 -17.25 -0.25 -0.30 -2.80 -0.45 -6.35 -0.35 l-5.95 0.15 -13.10 34.65 c-7.20 19.05 -13.10 34.80 -13.10 34.95 0 0.20 3.30 0.35 7.40 0.35 l7.35 0 8.70 -24 c4.80 -13.20 8.90 -23.85 9.10 -23.65 0.20 0.25 2.45 6.05 4.95 12.90 2.50 6.90 6.40 17.50 8.65 23.60 l4.05 11.10 7.30 0.15 c4 0.10 7.30 0 7.40 -0.15 0.10 -0.20 -2.90 -8.30 -6.60 -18z m60.70 17.30 c9.10 -2.85 17 -9.35 21.45 -17.75 2.45 -4.60 3.60 -9.50 3.90 -16.85 l0.30 -6.65 -17.85 0 -17.80 0 0 7 0 7 10 0 c5.50 0 10 0.10 10 0.25 0 0.15 -0.55 1.35 -1.20 2.65 -2.05 4.05 -5.45 7.40 -9.70 9.45 -3.70 1.85 -3.95 1.90 -9.30 1.90 -5.20 0 -5.75 -0.10 -8.95 -1.60 -8.55 -4.05 -13.65 -13.40 -12.35 -22.70 0.95 -6.70 5.65 -13.15 11.65 -15.95 8.85 -4.15 17.65 -2.85 24.50 3.65 3 2.80 2.15 3 9.20 -2.20 l4.70 -3.50 -1.55 -1.95 c-2.75 -3.45 -6.60 -6.50 -11.25 -8.80 -5.30 -2.60 -9.85 -3.70 -15.85 -3.70 -6.10 0 -10.85 1.10 -16.40 3.85 -3.95 1.90 -5.45 3.05 -8.85 6.45 -3.50 3.55 -4.50 4.95 -6.60 9.30 -1.35 2.85 -2.75 6.40 -3.10 7.90 -0.95 3.85 -0.80 12.55 0.25 16.50 1.10 4.30 4.15 10.65 6.65 13.75 4.40 5.55 11.85 10.40 18.85 12.30 4.50 1.20 14.95 1.05 19.30 -0.30z m-143 -14.65 l0 -15.45 12 -19.35 c6.60 -10.65 12 -19.50 12 -19.70 0 -0.20 -3.65 -0.30 -8.10 -0.25 l-8.15 0.05 -7.25 12.05 c-3.95 6.65 -7.35 12.05 -7.55 12.05 -0.20 0 -3.60 -5.40 -7.55 -12 l-7.15 -11.95 -8.10 -0.05 c-4.50 0 -8.15 0.10 -8.15 0.25 0 0.10 0.75 1.40 1.70 2.85 0.90 1.45 6.30 10.25 12 19.55 l10.30 16.85 0 15.25 0 15.25 7 0 7 0 0 -15.40z m228 8.90 l0 -6.50 -22.75 0 -22.75 0 0 6.50 0 6.50 22.75 0 22.75 0 0 -6.50z m-429.50 -28.25 l0 -6.75 -22.75 0 -22.75 0 0 6.75 0 6.75 22.75 0 22.75 0 0 -6.75z m429.50 0 l0 -6.75 -22.75 0 -22.75 0 0 6.75 0 6.75 22.75 0 22.75 0 0 -6.75z m-429.60 -28.90 c-0.10 -3.50 -0.30 -6.35 -0.50 -6.35 -0.25 0 -10.40 0 -22.65 0 l-22.25 0 0 6.50 0 6.50 22.40 0.10 c12.30 0.10 22.55 0 22.75 -0.15 0.20 -0.15 0.30 -3.15 0.25 -6.60z m429.60 0.15 l0 -6.50 -22.75 0 -22.75 0 0 6.50 0 6.50 22.75 0 22.75 0 0 -6.50z"/>
  <path d="M576.90 275.75 c-4.15 -1.05 -6.45 -2.35 -9.65 -5.45 -8.50 -8.35 -8.55 -22 -0.05 -30.45 3.30 -3.30 5.55 -4.55 10.15 -5.65 6.15 -1.45 12.65 -0.10 17.55 3.55 5.55 4.20 8.60 10.30 8.60 17.25 0 6.95 -3.05 13.05 -8.60 17.25 -1.65 1.25 -4.15 2.60 -5.55 3 -3.85 1.15 -9.10 1.35 -12.45 0.50z"/>
 </g>
</svg>